<svg id="Layer_1" data-name="Layer 1" xmlns="http://www.w3.org/2000/svg" viewBox="0 0 999.26 313.27"><defs><style>.cls-1{fill:#3860aa;}</style></defs><path class="cls-1" d="M171.65,0c8.5,1,17,1.85,25.51,3.05a274.51,274.51,0,0,1,84.21,26.08,9.44,9.44,0,0,1,4.16,4.2c19.62,43.51,29.93,89,28.19,136.86a278.13,278.13,0,0,1-27.78,111.44,9.09,9.09,0,0,1-4.15,3.7q-70.59,34-148.62,26.59a288.27,288.27,0,0,1-98.54-28,10.71,10.71,0,0,1-5.45-5.65C9.8,235.38-.19,190.45.92,143.33c.92-39,9.34-76.2,28.06-110.72A14.1,14.1,0,0,1,34.93,27C66.72,11.75,100.32,3.27,135.46.72A40,40,0,0,0,139.63,0Zm-12.5,238.5c0-2.5,0-4.55,0-6.6-.52-19.85-1.57-39.69.74-59.52,2-17.4,6.88-33.56,19.22-46.68,3-3.21,6.45-6.09,9.19-9.53,4.36-5.45,9.06-10.83,12.28-16.94,14.53-27.58.11-59.79-29.92-68.14-9.11-2.54-18-2-26.94.17-37.41,9.05-50.41,50.05-25,78.9,4.29,4.87,8.82,9.53,13.22,14.31a64.8,64.8,0,0,1,16.19,30.64c1.68,7.86,3.51,15.81,3.84,23.78.76,18,.64,36.07.87,54.1,0,1.76,0,3.52,0,5.3,1.3.1,1.94.19,2.58.2C156.45,238.52,157.49,238.5,159.15,238.5Zm-11-.2a15.27,15.27,0,0,0,.34-1.8c1.51-23.41,1.31-46.74-3.61-69.8-3.28-15.38-8.42-30.06-18.81-42.28-11.42-13.43-25.78-20.13-43.59-16.77C70,110,59.16,115.9,55.1,128.68c-2.38,7.5-2.9,15.82-2.94,23.78-.06,10.23,5.44,17.81,14.77,22,5.78,2.6,12,4.3,18,6.34,9.22,3.13,18.78,5.49,27.61,9.47,16.48,7.43,26.65,20.31,29.7,38.38.54,3.17,1,6.35,1.58,9.66Zm20.93.2c.1-1.64.17-2.79.25-3.94,1.43-20.38,10.91-35.64,29.7-44.08,9.08-4.07,18.92-6.43,28.36-9.71,6.24-2.17,12.62-4.15,18.54-7,9.25-4.49,13.79-12.46,13.88-22.65a104.6,104.6,0,0,0-1.33-14.3c-2.15-16.49-17-27-29.69-29.24-17.38-3.1-31.17,3.65-42.26,16.39-11.92,13.68-18.64,29.89-21.09,47.79-3,21.7-2.13,43.54-1.87,65.35a5.49,5.49,0,0,0,.41,1.42ZM54.33,173.42c-7.22,12-8.13,23.74-1.86,35.67,6,11.33,15.8,16,28.34,15.45,2.46-.1,4.92-.32,7.37-.61,7.35-.88,14.66-2.27,22-2.63,10.77-.54,17.3,3.7,21.22,13.6,1.5,3.79,3.57,4.07,6.88,3.26a12.56,12.56,0,0,0,.31-2,27.79,27.79,0,0,0-.17-3.88c-2.76-19.06-13.53-31.71-31.55-37.86-11.78-4-24-6.92-35.86-10.57C64.82,181.94,58.88,179.29,54.33,173.42Zm119,64.59c4.67.81,4.67.81,6.21-2.16,6-11.47,13.29-15.25,26.16-13.41,5.14.73,10.25,1.75,15.4,2.47,11,1.55,21.45.27,30.89-6.36,14.64-10.28,14.3-31.32,4.51-44.38-3.68,5.9-9.82,7.86-15.91,9.78-10.9,3.44-21.95,6.42-32.75,10.15a53.86,53.86,0,0,0-22.71,14.67C177.6,217.07,174.09,227,173.34,238Zm-63.55,48.35c.59-3.21,1.12-5.86,1.54-8.53.12-.75-.23-1.57-.1-2.31a8.46,8.46,0,0,1,1-3.53c2.83-3.85,2.12-8.92-2.2-10.89-3.29-1.49-7-2.1-10.82-3.19l-5.52,24.91,4.93,1c1-3.6,2-6.9,3.09-10.8,1.78.94,4.09,1.5,4.21,2.36.45,3.17.18,6.44.18,10Zm68.26-22c1.42,8.56,2.75,16.66,4.14,25,3.09-.63,5.6-1.49,8.15-1.58,5.75-.2,7.19-7.49,3.87-11.33-.65-.75-1.44-1.38-2.19-2.09,2-3.23,2.43-6.54-.17-9.14C187.88,261.28,183.15,263.37,178.05,264.35Zm-91.32-2c2.43,1.28,2.35,1.26,2.93-1.32.84-3.73-.81-5.9-4.15-7.27-4.25-1.74-8-1.42-9.66,2a67.73,67.73,0,0,0-5.06,14.56c-1.17,5.27,1.5,8.09,6.86,8.52,1.89.15,4.11-1,5.47,1.44.07.11,2.11-.37,2.29-.89,1.21-3.63,2.18-7.35,3.28-11.22l-7.36-2.41-1.07,1L83,271.49c-.19,2-1.2,4.2-4.51,3.53-3.08-.63-2.65-3.19-2.2-5.34a45.94,45.94,0,0,1,2.21-7.43c.77-2,1.46-4.85,4.33-3.93C84.42,258.82,85.46,261,86.73,262.37Zm47.38,1.45c-.64,4.91-1.23,9.77-1.91,14.63-.39,2.77-.35,6.5-4.42,5.92s-3.06-4.16-2.76-6.95c.51-4.71,1.13-9.42,1.75-14.45l-4.84-.48c-.67,6.56-1.41,12.72-1.9,18.9-.35,4.45,3.09,7.91,7.91,8.31,4.42.36,8-2.34,8.49-6.74.63-5.41.95-10.85,1.58-16.25C138.33,264,137.26,263.15,134.11,263.82Zm107.76,11.85c-4-6.79-7.71-13.19-11.63-19.45a3.93,3.93,0,0,0-3.32-1.3c-1.06.19-2.77,1.51-2.75,2.3.23,8,.76,16,1.2,24,2.68-.28,4.8-.66,4.15-3.65-.86-3.93,1.36-5,4.74-5.31.68.89,1.36,1.83,2.07,2.74s1.4,1.77,2.22,2.8Zm-92,4.12c1.26,0,2.14,0,3,0,5.44,0,7.73-1.83,8.21-6.59.45-4.53-1.75-7.23-6.88-8.14-2.38-.42-4.81-.53-7.72-.83-.48,8.89-.93,17.31-1.38,25.69,3.64.56,3.67.56,3.95-2S149.54,282.81,149.83,279.79Zm65.79-14.39c-.48-4.93-2.16-6.46-6.87-6.37-5.11.1-7.59,1.9-7.41,6.4a79.36,79.36,0,0,0,2,14.55c1.19,5.11,4.89,6.66,10.29,5,3.92-1.23,5.31-4.49,3.92-9.72l-3.48.66c-.14,1.5.09,2.85-.45,3.74a4.74,4.74,0,0,1-2.9,2.08c-.85.12-2.55-.81-2.72-1.54-1.08-4.77-2-9.6-2.59-14.46-.11-.84,1.27-2.29,2.27-2.71a3.16,3.16,0,0,1,2.89,1.08C211.85,266.8,213.62,266.2,215.62,265.4Z" transform="translate(-0.84)"/><path class="cls-1" d="M1000.1,283.7l-78.83-.12h-5c-.48-14.75-.94-29.11-1.42-43.81-1.5-.08-2.76-.21-4-.21-15,0-29.93.08-44.89-.08-2.83,0-4.08,1-5.1,3.5-5,12.53-10.28,25-15.39,37.47-.79,1.93-1.56,3.2-4.1,3.19-28.62-.1-57.24-.06-85.86-.07-.51,0-1-.11-2.23-.24L844.5,101.4H824.89c.78-1.66,1.26-2.8,1.83-3.88q18-34.12,36-68.25c1.12-2.12,2.23-3.35,5-3.34q58.15.15,116.3.08c1,0,2,.13,3.28.22a23.43,23.43,0,0,1,.36,2.33q4,82.29,7.92,164.58,1.95,40.47,3.94,80.93a37.22,37.22,0,0,0,.65,4.17ZM915.46,115.81l-1.37-.26L888,178h27.51Z" transform="translate(-0.84)"/><path class="cls-1" d="M353.63,283.36c15.31-60,30.54-119.67,45.88-179.8H381.4c.63-1.53,1-2.58,1.5-3.57,12-23.6,24.11-47.17,36-70.82,1.25-2.49,2.72-3.23,5.39-3.23,33.18.09,66.35-.13,99.52.19A120.22,120.22,0,0,1,549.74,29c33.49,7.75,49.67,35.82,39.91,68.75-6.36,21.45-20,37.28-39.12,48.57-1.55.92-3.15,1.77-5,2.8a14.52,14.52,0,0,0,1.59,1.34c21.14,13.47,28.39,33.22,24.63,57.07-5.72,36.32-35.92,66.33-73.54,73.76a114.64,114.64,0,0,1-21.29,2.23c-39.81.21-79.62.11-119.42.1C356.35,283.57,355.22,283.45,353.63,283.36Zm93.18-67.48h4.64c9.22,0,18.47.33,27.67-.2,10-.58,19.94-9.45,22.34-19.1,1.46-5.86.18-11.23-5-14.39a31.58,31.58,0,0,0-12.93-4.64c-7.6-.75-15.32-.12-23-.27-2.45,0-3.42.9-4,3.16-1.2,4.91-2.64,9.76-4,14.63Zm22.63-86.6c7.41,0,14.28-.28,21.11.06,11.11.56,18.13-5.39,23.07-14.26,5.43-9.74-.11-18.87-11.35-19.1-7.66-.16-15.32.06-23-.08-2.32-.05-3.13.83-3.56,3-1.67,8.38-3.51,16.73-5.27,25.09C470.13,125.57,469.85,127.18,469.44,129.28Z" transform="translate(-0.84)"/><path class="cls-1" d="M830.35,53.32c-13.56,23.92-27,47.61-40.54,71.55-1.51-1.14-2.72-2.1-4-3-24.91-18-52-24.28-81.41-13.38-25,9.28-39.62,28-43.81,54.22-4.66,29.18,16.54,55.93,46.07,58.64,24.5,2.24,46.81-4.63,67.69-17,1.33-.79,2.63-1.63,4.56-2.83a19.93,19.93,0,0,1-.82,2.83c-12.48,25.84-24.92,51.7-37.61,77.44a8.82,8.82,0,0,1-5.55,4.12c-10.71,2-21.46,4.12-32.3,5a144.43,144.43,0,0,1-55.5-6.28C608.49,272.36,586.49,245.73,580,206c-4.53-27.92,1.92-54.37,12.92-79.63,19.81-45.49,55.36-73.7,101.85-88.95,18.92-6.21,38.35-9.6,58.38-7.84A62,62,0,0,1,765.39,32c2.26.67,3.45.39,4.9-1.42,5-6.18,5-6.14,12.14-2.45q22.13,11.53,44.25,23.1C827.81,51.86,828.9,52.51,830.35,53.32Z" transform="translate(-0.84)"/><path class="cls-1" d="M102.31,270l1.87-7.11c1.87,1.2,3.48,1.89,4.52,3.07.44.5,0,2.72-.6,3C106.62,269.58,104.85,269.57,102.31,270Z" transform="translate(-0.84)"/><path class="cls-1" d="M184.48,273.57c-.43-2.26-.78-4.11-1.43-7.48,2.4,1,4.68,1.23,5.18,2.3C189.53,271.13,187.49,272.51,184.48,273.57Z" transform="translate(-0.84)"/><path class="cls-1" d="M186.69,285.19c-.39-2.16-.75-4.14-1.13-6.22,2.26-1.1,4.08-1.09,4.85,1.31C191.32,283.09,189.93,284.63,186.69,285.19Z" transform="translate(-0.84)"/><path class="cls-1" d="M233.2,268.84l-4.56,1.3c-.17-2.45-.32-4.56-.46-6.67l.76-.42Z" transform="translate(-0.84)"/><path class="cls-1" d="M150.14,275c1.29-2.18-1.12-5.79,3.13-5.79,2.19,0,3.71,1.52,3.09,3.9C155.53,276.3,153.16,275.89,150.14,275Z" transform="translate(-0.84)"/></svg>