<?xml version="1.0" standalone="no"?>
<!DOCTYPE svg PUBLIC "-//W3C//DTD SVG 20010904//EN"
 "http://www.w3.org/TR/2001/REC-SVG-20010904/DTD/svg10.dtd">
<svg version="1.0" xmlns="http://www.w3.org/2000/svg"
 width="300.000000pt" height="111.000000pt" viewBox="0 0 300.000000 111.000000"
 preserveAspectRatio="xMidYMid meet">

<g transform="translate(0.000000,111.000000) scale(0.100000,-0.100000)"
fill="#000000" stroke="none">
<path d="M7 1103 c-4 -3 -7 -89 -7 -190 l0 -183 25 0 25 0 2 163 3 162 163 3
162 2 0 25 0 25 -183 0 c-101 0 -187 -3 -190 -7z"/>
<path d="M120 990 c-3 -205 1 -734 5 -741 4 -5 102 -9 236 -9 l229 0 0 95 0
95 -140 0 -140 0 0 285 0 285 -95 0 c-57 0 -95 -4 -95 -10z"/>
<path d="M400 905 l0 -95 145 0 145 0 0 -140 0 -140 95 0 95 0 -2 233 -3 232
-237 3 -238 2 0 -95z"/>
<path d="M970 905 l0 -95 285 0 285 0 0 -45 0 -45 -285 0 -285 0 0 -240 0
-240 95 0 95 0 0 142 0 143 143 -143 142 -142 145 0 145 1 -150 144 -150 145
150 0 150 0 -3 235 -3 235 -379 0 -380 0 0 -95z"/>
<path d="M1830 620 l0 -380 95 0 95 0 0 380 0 380 -95 0 -95 0 0 -380z"/>
<path d="M2110 765 l0 -235 240 0 240 0 0 -50 0 -50 -240 0 -241 0 3 -92 3
-93 383 -3 382 -2 0 240 0 240 -240 0 -240 0 0 45 0 45 240 0 240 0 0 95 0 95
-385 0 -385 0 0 -235z"/>
<path d="M400 625 l0 -95 95 0 95 0 0 95 0 95 -95 0 -95 0 0 -95z m140 0 l0
-45 -45 0 -45 0 0 45 0 45 45 0 45 0 0 -45z"/>
<path d="M2948 328 l-3 -163 -162 -3 -163 -2 0 -25 0 -25 188 2 187 3 3 188 2
187 -25 0 -25 0 -2 -162z"/>
<path d="M690 215 l0 -216 93 3 92 3 3 213 2 212 -95 0 -95 0 0 -215z"/>
</g>
</svg>
